<svg width="33" height="33" viewBox="0 0 33 33" fill="none" xmlns="http://www.w3.org/2000/svg">
<rect width="32.6667" height="32.6667" rx="16.3333" fill="#E7E7E7" fill-opacity="0.31"/>
<path d="M24.3333 17.6667H17.6667V24.3333C17.6667 25.0667 17.0667 25.6667 16.3333 25.6667C15.6 25.6667 15 25.0667 15 24.3333V17.6667H8.33333C7.6 17.6667 7 17.0667 7 16.3333C7 15.6 7.6 15 8.33333 15H15V8.33333C15 7.6 15.6 7 16.3333 7C17.0667 7 17.6667 7.6 17.6667 8.33333V15H24.3333C25.0667 15 25.6667 15.6 25.6667 16.3333C25.6667 17.0667 25.0667 17.6667 24.3333 17.6667Z" fill="black"/>
</svg>
