<svg width="21" height="20" viewBox="0 0 21 20" fill="none" xmlns="http://www.w3.org/2000/svg">
<path fill-rule="evenodd" clip-rule="evenodd" d="M0.75 10C0.75 4.615 5.115 0.25 10.5 0.25C15.885 0.25 20.25 4.615 20.25 10C20.25 15.385 15.885 19.75 10.5 19.75C5.115 19.75 0.75 15.385 0.75 10ZM12.128 6.083C11.238 5.306 9.762 5.306 8.873 6.083C8.72329 6.21402 8.52766 6.28019 8.32915 6.26697C8.13064 6.25375 7.94552 6.16221 7.8145 6.0125C7.68348 5.86279 7.61731 5.66716 7.63053 5.46865C7.64375 5.27014 7.73529 5.08502 7.885 4.954C9.339 3.682 11.661 3.682 13.115 4.954C14.628 6.278 14.628 8.472 13.115 9.796C12.8616 10.0162 12.5802 10.2018 12.278 10.348C11.602 10.676 11.25 11.122 11.25 11.5V12.25C11.25 12.4489 11.171 12.6397 11.0303 12.7803C10.8897 12.921 10.6989 13 10.5 13C10.3011 13 10.1103 12.921 9.96967 12.7803C9.82902 12.6397 9.75 12.4489 9.75 12.25V11.5C9.75 10.221 10.81 9.393 11.625 8.998C11.8077 8.90933 11.9753 8.799 12.128 8.667C12.958 7.94 12.958 6.81 12.128 6.083ZM10.5 16C10.6989 16 10.8897 15.921 11.0303 15.7803C11.171 15.6397 11.25 15.4489 11.25 15.25C11.25 15.0511 11.171 14.8603 11.0303 14.7197C10.8897 14.579 10.6989 14.5 10.5 14.5C10.3011 14.5 10.1103 14.579 9.96967 14.7197C9.82902 14.8603 9.75 15.0511 9.75 15.25C9.75 15.4489 9.82902 15.6397 9.96967 15.7803C10.1103 15.921 10.3011 16 10.5 16Z" fill="#888888"/>
</svg>
