<svg width="26" height="28" viewBox="0 0 26 28" fill="none" xmlns="http://www.w3.org/2000/svg">
<path d="M7 9V7C7 5.4087 7.63214 3.88258 8.75736 2.75736C9.88258 1.63214 11.4087 1 13 1C14.5913 1 16.1174 1.63214 17.2426 2.75736C18.3679 3.88258 19 5.4087 19 7V9M2 9C1.73478 9 1.48043 9.10536 1.29289 9.29289C1.10536 9.48043 1 9.73478 1 10V23.5C1 25.39 2.61 27 4.5 27H21.5C23.39 27 25 25.4681 25 23.5781V10C25 9.73478 24.8946 9.48043 24.7071 9.29289C24.5196 9.10536 24.2652 9 24 9H2Z" stroke="black" stroke-width="2" stroke-linecap="round" stroke-linejoin="round"/>
</svg>
